%
M48
M72
T01C0.0354
T02C0.0394
T03C0.0400
T04C0.0472
T05C0.1260
%
T01
X14480Y4992
X15980Y4992
X17480Y7492
X15980Y8992
X14480Y8992
X17480Y11492
T02
X8330Y6892
X9330Y6892
X10330Y6892
X11330Y6892
X10830Y7892
X9830Y7892
X8830Y7892
X11830Y7892
T03
X15880Y15892
T04
X3610Y7292
X5128Y7292
X7858Y15992
X9236Y15992
X10614Y15992
X11992Y15992
X13370Y15992
X6480Y15992
T05
X7830Y4392
X12330Y4392
M30
