G75*
G70*
%OFA0B0*%
%FSLAX24Y24*%
%IPPOS*%
%LPD*%
%AMOC8*
5,1,8,0,0,1.08239X$1,22.5*
%
%ADD10C,0.0010*%
%ADD11C,0.0160*%
%ADD12C,0.0040*%
%ADD13C,0.0030*%
%ADD14C,0.0060*%
%ADD15C,0.0080*%
%ADD16C,0.0000*%
%ADD17C,0.0050*%
D10*
X004130Y011392D02*
X004132Y011450D01*
X004138Y011508D01*
X004148Y011565D01*
X004162Y011621D01*
X004179Y011677D01*
X004200Y011731D01*
X004225Y011783D01*
X004254Y011834D01*
X004286Y011882D01*
X004321Y011928D01*
X004359Y011972D01*
X004400Y012013D01*
X004444Y012051D01*
X004490Y012086D01*
X004538Y012118D01*
X004589Y012147D01*
X004641Y012172D01*
X004695Y012193D01*
X004751Y012210D01*
X004807Y012224D01*
X004864Y012234D01*
X004922Y012240D01*
X004980Y012242D01*
X005038Y012240D01*
X005096Y012234D01*
X005153Y012224D01*
X005209Y012210D01*
X005265Y012193D01*
X005319Y012172D01*
X005371Y012147D01*
X005422Y012118D01*
X005470Y012086D01*
X005516Y012051D01*
X005560Y012013D01*
X005601Y011972D01*
X005639Y011928D01*
X005674Y011882D01*
X005706Y011834D01*
X005735Y011783D01*
X005760Y011731D01*
X005781Y011677D01*
X005798Y011621D01*
X005812Y011565D01*
X005822Y011508D01*
X005828Y011450D01*
X005830Y011392D01*
X005828Y011334D01*
X005822Y011276D01*
X005812Y011219D01*
X005798Y011163D01*
X005781Y011107D01*
X005760Y011053D01*
X005735Y011001D01*
X005706Y010950D01*
X005674Y010902D01*
X005639Y010856D01*
X005601Y010812D01*
X005560Y010771D01*
X005516Y010733D01*
X005470Y010698D01*
X005422Y010666D01*
X005371Y010637D01*
X005319Y010612D01*
X005265Y010591D01*
X005209Y010574D01*
X005153Y010560D01*
X005096Y010550D01*
X005038Y010544D01*
X004980Y010542D01*
X004922Y010544D01*
X004864Y010550D01*
X004807Y010560D01*
X004751Y010574D01*
X004695Y010591D01*
X004641Y010612D01*
X004589Y010637D01*
X004538Y010666D01*
X004490Y010698D01*
X004444Y010733D01*
X004400Y010771D01*
X004359Y010812D01*
X004321Y010856D01*
X004286Y010902D01*
X004254Y010950D01*
X004225Y011001D01*
X004200Y011053D01*
X004179Y011107D01*
X004162Y011163D01*
X004148Y011219D01*
X004138Y011276D01*
X004132Y011334D01*
X004130Y011392D01*
X006010Y016997D02*
X006035Y016997D01*
X006060Y017022D01*
X006060Y017147D01*
X006035Y017147D02*
X006085Y017147D01*
X006132Y017147D02*
X006207Y017147D01*
X006232Y017122D01*
X006232Y017072D01*
X006207Y017047D01*
X006132Y017047D01*
X006132Y016997D02*
X006132Y017147D01*
X006280Y017097D02*
X006330Y017147D01*
X006330Y016997D01*
X006280Y016997D02*
X006380Y016997D01*
X006010Y016997D02*
X005985Y017022D01*
X007480Y019392D02*
X007480Y020892D01*
X007480Y019392D02*
X007473Y019327D01*
X007470Y019262D01*
X007471Y019197D01*
X007475Y019132D01*
X007483Y019068D01*
X007495Y019004D01*
X007510Y018940D01*
X007529Y018878D01*
X007551Y018817D01*
X007576Y018757D01*
X007605Y018699D01*
X007637Y018642D01*
X007672Y018587D01*
X007711Y018535D01*
X007752Y018484D01*
X007796Y018436D01*
X007842Y018391D01*
X007891Y018348D01*
X007942Y018308D01*
X007996Y018271D01*
X008051Y018237D01*
X008108Y018206D01*
X008167Y018178D01*
X008228Y018154D01*
X008289Y018133D01*
X008352Y018116D01*
X008416Y018102D01*
X008480Y018092D01*
X011480Y018092D01*
X011544Y018102D01*
X011608Y018116D01*
X011671Y018133D01*
X011732Y018154D01*
X011793Y018178D01*
X011852Y018206D01*
X011909Y018237D01*
X011964Y018271D01*
X012018Y018308D01*
X012069Y018348D01*
X012118Y018391D01*
X012164Y018436D01*
X012208Y018484D01*
X012249Y018535D01*
X012288Y018587D01*
X012323Y018642D01*
X012355Y018699D01*
X012384Y018757D01*
X012409Y018817D01*
X012431Y018878D01*
X012450Y018940D01*
X012465Y019004D01*
X012477Y019068D01*
X012485Y019132D01*
X012489Y019197D01*
X012490Y019262D01*
X012487Y019327D01*
X012480Y019392D01*
X012480Y020892D01*
X007780Y011392D02*
X007783Y011500D01*
X007791Y011608D01*
X007804Y011715D01*
X007822Y011821D01*
X007846Y011927D01*
X007875Y012031D01*
X007909Y012133D01*
X007947Y012234D01*
X007991Y012333D01*
X008040Y012429D01*
X008093Y012523D01*
X008151Y012614D01*
X008213Y012703D01*
X008279Y012788D01*
X008350Y012869D01*
X008424Y012948D01*
X008503Y013022D01*
X008584Y013093D01*
X008669Y013159D01*
X008758Y013221D01*
X008849Y013279D01*
X008943Y013332D01*
X009039Y013381D01*
X009138Y013425D01*
X009239Y013463D01*
X009341Y013497D01*
X009445Y013526D01*
X009551Y013550D01*
X009657Y013568D01*
X009764Y013581D01*
X009872Y013589D01*
X009980Y013592D01*
X010088Y013589D01*
X010196Y013581D01*
X010303Y013568D01*
X010409Y013550D01*
X010515Y013526D01*
X010619Y013497D01*
X010721Y013463D01*
X010822Y013425D01*
X010921Y013381D01*
X011017Y013332D01*
X011111Y013279D01*
X011202Y013221D01*
X011291Y013159D01*
X011376Y013093D01*
X011457Y013022D01*
X011536Y012948D01*
X011610Y012869D01*
X011681Y012788D01*
X011747Y012703D01*
X011809Y012614D01*
X011867Y012523D01*
X011920Y012429D01*
X011969Y012333D01*
X012013Y012234D01*
X012051Y012133D01*
X012085Y012031D01*
X012114Y011927D01*
X012138Y011821D01*
X012156Y011715D01*
X012169Y011608D01*
X012177Y011500D01*
X012180Y011392D01*
X012177Y011284D01*
X012169Y011176D01*
X012156Y011069D01*
X012138Y010963D01*
X012114Y010857D01*
X012085Y010753D01*
X012051Y010651D01*
X012013Y010550D01*
X011969Y010451D01*
X011920Y010355D01*
X011867Y010261D01*
X011809Y010170D01*
X011747Y010081D01*
X011681Y009996D01*
X011610Y009915D01*
X011536Y009836D01*
X011457Y009762D01*
X011376Y009691D01*
X011291Y009625D01*
X011202Y009563D01*
X011111Y009505D01*
X011017Y009452D01*
X010921Y009403D01*
X010822Y009359D01*
X010721Y009321D01*
X010619Y009287D01*
X010515Y009258D01*
X010409Y009234D01*
X010303Y009216D01*
X010196Y009203D01*
X010088Y009195D01*
X009980Y009192D01*
X009872Y009195D01*
X009764Y009203D01*
X009657Y009216D01*
X009551Y009234D01*
X009445Y009258D01*
X009341Y009287D01*
X009239Y009321D01*
X009138Y009359D01*
X009039Y009403D01*
X008943Y009452D01*
X008849Y009505D01*
X008758Y009563D01*
X008669Y009625D01*
X008584Y009691D01*
X008503Y009762D01*
X008424Y009836D01*
X008350Y009915D01*
X008279Y009996D01*
X008213Y010081D01*
X008151Y010170D01*
X008093Y010261D01*
X008040Y010355D01*
X007991Y010451D01*
X007947Y010550D01*
X007909Y010651D01*
X007875Y010753D01*
X007846Y010857D01*
X007822Y010963D01*
X007804Y011069D01*
X007791Y011176D01*
X007783Y011284D01*
X007780Y011392D01*
X007480Y020892D02*
X007019Y020758D01*
X006565Y020602D01*
X006119Y020424D01*
X005682Y020225D01*
X005256Y020004D01*
X004840Y019763D01*
X004437Y019502D01*
X004048Y019221D01*
X003672Y018922D01*
X003312Y018605D01*
X002967Y018270D01*
X002640Y017920D01*
X002329Y017553D01*
X002037Y017172D01*
X001764Y016777D01*
X001511Y016369D01*
X001278Y015949D01*
X001066Y015518D01*
X000875Y015078D01*
X000705Y014629D01*
X000558Y014171D01*
X000434Y013708D01*
X000332Y013238D01*
X000253Y012765D01*
X000198Y012288D01*
X000166Y011809D01*
X000157Y011329D01*
X000172Y010849D01*
X000210Y010370D01*
X000272Y009894D01*
X000357Y009421D01*
X000465Y008953D01*
X000595Y008491D01*
X000748Y008036D01*
X000923Y007589D01*
X001120Y007151D01*
X001337Y006723D01*
X001576Y006306D01*
X001835Y005902D01*
X002113Y005510D01*
X002409Y005133D01*
X002724Y004770D01*
X003057Y004424D01*
X003405Y004094D01*
X003770Y003781D01*
X004149Y003487D01*
X004542Y003211D01*
X004949Y002955D01*
X005367Y002720D01*
X005796Y002505D01*
X006236Y002311D01*
X006684Y002139D01*
X007140Y001989D01*
X007603Y001861D01*
X008071Y001756D01*
X008545Y001674D01*
X009021Y001616D01*
X009500Y001581D01*
X009980Y001569D01*
X010460Y001581D01*
X010939Y001616D01*
X011415Y001674D01*
X011889Y001756D01*
X012357Y001861D01*
X012820Y001989D01*
X013276Y002139D01*
X013724Y002311D01*
X014164Y002505D01*
X014593Y002720D01*
X015011Y002955D01*
X015418Y003211D01*
X015811Y003487D01*
X016190Y003781D01*
X016555Y004094D01*
X016903Y004424D01*
X017236Y004770D01*
X017551Y005133D01*
X017847Y005510D01*
X018125Y005902D01*
X018384Y006306D01*
X018623Y006723D01*
X018840Y007151D01*
X019037Y007589D01*
X019212Y008036D01*
X019365Y008491D01*
X019495Y008953D01*
X019603Y009421D01*
X019688Y009894D01*
X019750Y010370D01*
X019788Y010849D01*
X019803Y011329D01*
X019794Y011809D01*
X019762Y012288D01*
X019707Y012765D01*
X019628Y013238D01*
X019526Y013708D01*
X019402Y014171D01*
X019255Y014629D01*
X019085Y015078D01*
X018894Y015518D01*
X018682Y015949D01*
X018449Y016369D01*
X018196Y016777D01*
X017923Y017172D01*
X017631Y017553D01*
X017320Y017920D01*
X016993Y018270D01*
X016648Y018605D01*
X016288Y018922D01*
X015912Y019221D01*
X015523Y019502D01*
X015120Y019763D01*
X014704Y020004D01*
X014278Y020225D01*
X013841Y020424D01*
X013395Y020602D01*
X012941Y020758D01*
X012480Y020892D01*
X014130Y011392D02*
X014132Y011450D01*
X014138Y011508D01*
X014148Y011565D01*
X014162Y011621D01*
X014179Y011677D01*
X014200Y011731D01*
X014225Y011783D01*
X014254Y011834D01*
X014286Y011882D01*
X014321Y011928D01*
X014359Y011972D01*
X014400Y012013D01*
X014444Y012051D01*
X014490Y012086D01*
X014538Y012118D01*
X014589Y012147D01*
X014641Y012172D01*
X014695Y012193D01*
X014751Y012210D01*
X014807Y012224D01*
X014864Y012234D01*
X014922Y012240D01*
X014980Y012242D01*
X015038Y012240D01*
X015096Y012234D01*
X015153Y012224D01*
X015209Y012210D01*
X015265Y012193D01*
X015319Y012172D01*
X015371Y012147D01*
X015422Y012118D01*
X015470Y012086D01*
X015516Y012051D01*
X015560Y012013D01*
X015601Y011972D01*
X015639Y011928D01*
X015674Y011882D01*
X015706Y011834D01*
X015735Y011783D01*
X015760Y011731D01*
X015781Y011677D01*
X015798Y011621D01*
X015812Y011565D01*
X015822Y011508D01*
X015828Y011450D01*
X015830Y011392D01*
X015828Y011334D01*
X015822Y011276D01*
X015812Y011219D01*
X015798Y011163D01*
X015781Y011107D01*
X015760Y011053D01*
X015735Y011001D01*
X015706Y010950D01*
X015674Y010902D01*
X015639Y010856D01*
X015601Y010812D01*
X015560Y010771D01*
X015516Y010733D01*
X015470Y010698D01*
X015422Y010666D01*
X015371Y010637D01*
X015319Y010612D01*
X015265Y010591D01*
X015209Y010574D01*
X015153Y010560D01*
X015096Y010550D01*
X015038Y010544D01*
X014980Y010542D01*
X014922Y010544D01*
X014864Y010550D01*
X014807Y010560D01*
X014751Y010574D01*
X014695Y010591D01*
X014641Y010612D01*
X014589Y010637D01*
X014538Y010666D01*
X014490Y010698D01*
X014444Y010733D01*
X014400Y010771D01*
X014359Y010812D01*
X014321Y010856D01*
X014286Y010902D01*
X014254Y010950D01*
X014225Y011001D01*
X014200Y011053D01*
X014179Y011107D01*
X014162Y011163D01*
X014148Y011219D01*
X014138Y011276D01*
X014132Y011334D01*
X014130Y011392D01*
D11*
X013180Y013192D02*
X012780Y013492D01*
X012780Y013992D01*
X013480Y013992D01*
X013480Y014492D01*
X012780Y013992D02*
X012080Y013992D01*
X012080Y014492D01*
X010680Y014492D02*
X010680Y014292D01*
X009280Y014292D01*
X009280Y014492D01*
X007880Y014492D02*
X007880Y013992D01*
X006480Y013992D01*
X006480Y014492D01*
X007180Y013892D02*
X007180Y013492D01*
X006980Y013092D01*
D12*
X003400Y005265D02*
X003553Y005112D01*
X003707Y005265D01*
X003707Y005572D01*
X003860Y005419D02*
X004014Y005572D01*
X004167Y005419D01*
X004167Y005112D01*
X004321Y005112D02*
X004628Y005112D01*
X004781Y005265D02*
X004935Y005112D01*
X005088Y005265D01*
X005088Y005572D01*
X005242Y005572D02*
X005242Y005112D01*
X005548Y005112D01*
X005395Y005342D02*
X005242Y005342D01*
X005242Y005572D02*
X005548Y005572D01*
X004781Y005572D02*
X004781Y005265D01*
X004321Y005112D02*
X004321Y005572D01*
X004167Y005342D02*
X003860Y005342D01*
X003860Y005419D02*
X003860Y005112D01*
X003400Y005265D02*
X003400Y005572D01*
X002160Y007612D02*
X001700Y007612D01*
X001700Y007842D01*
X001776Y007919D01*
X001853Y007919D01*
X001930Y007842D01*
X001930Y007612D01*
X002160Y007612D02*
X002160Y007842D01*
X002083Y007919D01*
X002007Y007919D01*
X001930Y007842D01*
X001853Y008072D02*
X001853Y008303D01*
X001930Y008379D01*
X002083Y008379D01*
X002160Y008303D01*
X002160Y008072D01*
X002313Y008072D02*
X001853Y008072D01*
X001930Y008533D02*
X002083Y008533D01*
X002160Y008609D01*
X002160Y008763D01*
X002083Y008840D01*
X001930Y008840D01*
X001853Y008763D01*
X001853Y008609D01*
X001930Y008533D01*
X001930Y008993D02*
X001853Y009070D01*
X001853Y009300D01*
X001700Y009300D02*
X002160Y009300D01*
X002160Y009070D01*
X002083Y008993D01*
X001930Y008993D01*
X002007Y009914D02*
X002007Y010144D01*
X001930Y010221D01*
X001776Y010221D01*
X001700Y010144D01*
X001700Y009914D01*
X002160Y009914D01*
X002083Y010374D02*
X001930Y010374D01*
X001853Y010451D01*
X001853Y010605D01*
X001930Y010681D01*
X002083Y010681D01*
X002160Y010605D01*
X002160Y010451D01*
X002083Y010374D01*
X002007Y010835D02*
X001853Y010988D01*
X001853Y011065D01*
X001853Y011218D02*
X001853Y011372D01*
X001776Y011295D02*
X002083Y011295D01*
X002160Y011372D01*
X002160Y010835D02*
X001853Y010835D01*
X001700Y011986D02*
X001700Y012139D01*
X001700Y012062D02*
X002160Y012062D01*
X002160Y011986D02*
X002160Y012139D01*
X002160Y012293D02*
X001853Y012293D01*
X001853Y012523D01*
X001930Y012600D01*
X002160Y012600D01*
X002083Y012830D02*
X002160Y012906D01*
X002083Y012830D02*
X001776Y012830D01*
X001853Y012753D02*
X001853Y012906D01*
X001930Y013060D02*
X001853Y013137D01*
X001853Y013290D01*
X001930Y013367D01*
X002007Y013367D01*
X002007Y013060D01*
X002083Y013060D02*
X001930Y013060D01*
X002083Y013060D02*
X002160Y013137D01*
X002160Y013290D01*
X002160Y013520D02*
X001853Y013520D01*
X002007Y013520D02*
X001853Y013674D01*
X001853Y013751D01*
X001930Y013904D02*
X001930Y014057D01*
X001776Y013981D02*
X001700Y014057D01*
X001776Y013981D02*
X002160Y013981D01*
X002083Y014211D02*
X002007Y014288D01*
X002007Y014518D01*
X001930Y014518D02*
X002160Y014518D01*
X002160Y014288D01*
X002083Y014211D01*
X001853Y014288D02*
X001853Y014441D01*
X001930Y014518D01*
X001930Y014671D02*
X002083Y014671D01*
X002160Y014748D01*
X002160Y014978D01*
X002083Y015132D02*
X001930Y015132D01*
X001853Y015208D01*
X001853Y015362D01*
X001930Y015439D01*
X002007Y015439D01*
X002007Y015132D01*
X002083Y015132D02*
X002160Y015208D01*
X002160Y015362D01*
X001853Y014978D02*
X001853Y014748D01*
X001930Y014671D01*
X002753Y014663D02*
X003060Y014509D01*
X002753Y014356D01*
X002830Y014203D02*
X002753Y014126D01*
X002753Y013972D01*
X002830Y013896D01*
X002983Y013896D01*
X003060Y013972D01*
X003060Y014126D01*
X002907Y014203D02*
X002907Y013896D01*
X002753Y013742D02*
X002753Y013665D01*
X002907Y013512D01*
X003060Y013512D02*
X002753Y013512D01*
X002830Y014203D02*
X002907Y014203D01*
X003060Y015277D02*
X003060Y015584D01*
X003060Y015430D02*
X002600Y015430D01*
X002753Y015277D01*
D13*
X004695Y012877D02*
X004818Y012877D01*
X004757Y012877D02*
X004757Y012507D01*
X004818Y012507D02*
X004695Y012507D01*
X004941Y012507D02*
X004941Y012877D01*
X005126Y012877D01*
X005187Y012816D01*
X005187Y012692D01*
X005126Y012630D01*
X004941Y012630D01*
X005064Y012630D02*
X005187Y012507D01*
X005677Y012507D02*
X005924Y012507D01*
X006045Y012507D02*
X006045Y012754D01*
X006107Y012754D01*
X006169Y012692D01*
X006231Y012754D01*
X006292Y012692D01*
X006292Y012507D01*
X006414Y012507D02*
X006537Y012507D01*
X006476Y012507D02*
X006476Y012754D01*
X006414Y012754D01*
X006476Y012877D02*
X006476Y012939D01*
X006659Y012754D02*
X006783Y012754D01*
X006721Y012816D02*
X006721Y012569D01*
X006783Y012507D01*
X006967Y012569D02*
X006967Y012816D01*
X007028Y012754D02*
X006905Y012754D01*
X006967Y012569D02*
X007028Y012507D01*
X007150Y012569D02*
X007150Y012692D01*
X007212Y012754D01*
X007336Y012754D01*
X007397Y012692D01*
X007397Y012630D01*
X007150Y012630D01*
X007150Y012569D02*
X007212Y012507D01*
X007336Y012507D01*
X007519Y012507D02*
X007519Y012754D01*
X007642Y012754D02*
X007519Y012630D01*
X007642Y012754D02*
X007704Y012754D01*
X007757Y013407D02*
X007695Y013469D01*
X007757Y013407D02*
X007880Y013407D01*
X007942Y013469D01*
X007942Y013592D01*
X007880Y013654D01*
X007818Y013654D01*
X007695Y013592D01*
X007695Y013777D01*
X007942Y013777D01*
X008063Y013777D02*
X008063Y013530D01*
X008187Y013407D01*
X008310Y013530D01*
X008310Y013777D01*
X009495Y013707D02*
X009742Y013707D01*
X009863Y013707D02*
X009863Y014077D01*
X010110Y014077D01*
X010232Y014077D02*
X010232Y013707D01*
X010417Y013707D01*
X010479Y013769D01*
X010479Y014016D01*
X010417Y014077D01*
X010232Y014077D01*
X010110Y013707D02*
X009863Y013707D01*
X009863Y013892D02*
X009987Y013892D01*
X009495Y014077D02*
X009495Y013707D01*
X011595Y013716D02*
X011595Y013469D01*
X011657Y013407D01*
X011780Y013407D01*
X011842Y013469D01*
X011842Y013592D01*
X011718Y013592D01*
X011595Y013716D02*
X011657Y013777D01*
X011780Y013777D01*
X011842Y013716D01*
X011963Y013777D02*
X012210Y013407D01*
X012210Y013777D01*
X012332Y013777D02*
X012517Y013777D01*
X012579Y013716D01*
X012579Y013469D01*
X012517Y013407D01*
X012332Y013407D01*
X012332Y013777D01*
X011963Y013777D02*
X011963Y013407D01*
X012395Y012877D02*
X012580Y012877D01*
X012642Y012816D01*
X012642Y012692D01*
X012580Y012630D01*
X012395Y012630D01*
X012395Y012507D02*
X012395Y012877D01*
X012763Y012877D02*
X012763Y012507D01*
X012763Y012692D02*
X012825Y012754D01*
X012948Y012754D01*
X013010Y012692D01*
X013010Y012507D01*
X013132Y012569D02*
X013132Y012692D01*
X013193Y012754D01*
X013317Y012754D01*
X013379Y012692D01*
X013379Y012569D01*
X013317Y012507D01*
X013193Y012507D01*
X013132Y012569D01*
X013500Y012754D02*
X013623Y012754D01*
X013562Y012816D02*
X013562Y012569D01*
X013623Y012507D01*
X013745Y012569D02*
X013745Y012692D01*
X013807Y012754D01*
X013931Y012754D01*
X013992Y012692D01*
X013992Y012569D01*
X013931Y012507D01*
X013807Y012507D01*
X013745Y012569D01*
X014114Y012754D02*
X014237Y012754D01*
X014176Y012816D02*
X014176Y012569D01*
X014237Y012507D01*
X014359Y012507D02*
X014359Y012754D01*
X014359Y012630D02*
X014483Y012754D01*
X014545Y012754D01*
X014728Y012754D02*
X014851Y012754D01*
X014913Y012692D01*
X014913Y012507D01*
X014728Y012507D01*
X014666Y012569D01*
X014728Y012630D01*
X014913Y012630D01*
X015035Y012507D02*
X015035Y012754D01*
X015220Y012754D01*
X015281Y012692D01*
X015281Y012507D01*
X015403Y012507D02*
X015588Y012507D01*
X015650Y012569D01*
X015588Y012630D01*
X015465Y012630D01*
X015403Y012692D01*
X015465Y012754D01*
X015650Y012754D01*
X015771Y012754D02*
X015833Y012754D01*
X015833Y012507D01*
X015771Y012507D02*
X015895Y012507D01*
X016017Y012507D02*
X016202Y012507D01*
X016264Y012569D01*
X016202Y012630D01*
X016078Y012630D01*
X016017Y012692D01*
X016078Y012754D01*
X016264Y012754D01*
X016385Y012754D02*
X016509Y012754D01*
X016447Y012816D02*
X016447Y012569D01*
X016509Y012507D01*
X016631Y012569D02*
X016692Y012507D01*
X016816Y012507D01*
X016877Y012569D01*
X016877Y012692D01*
X016816Y012754D01*
X016692Y012754D01*
X016631Y012692D01*
X016631Y012569D01*
X016999Y012630D02*
X017122Y012754D01*
X017184Y012754D01*
X016999Y012754D02*
X016999Y012507D01*
X015833Y012877D02*
X015833Y012939D01*
X015733Y016727D02*
X015733Y017097D01*
X015980Y016727D01*
X015980Y017097D01*
X016102Y017097D02*
X016287Y017097D01*
X016349Y017036D01*
X016349Y016789D01*
X016287Y016727D01*
X016102Y016727D01*
X016102Y017097D01*
X015612Y017036D02*
X015550Y017097D01*
X015427Y017097D01*
X015365Y017036D01*
X015365Y016789D01*
X015427Y016727D01*
X015550Y016727D01*
X015612Y016789D01*
X015612Y016912D01*
X015488Y016912D01*
X006779Y013716D02*
X006779Y013469D01*
X006717Y013407D01*
X006532Y013407D01*
X006532Y013777D01*
X006717Y013777D01*
X006779Y013716D01*
X006410Y013777D02*
X006410Y013407D01*
X006163Y013777D01*
X006163Y013407D01*
X006042Y013469D02*
X006042Y013592D01*
X005918Y013592D01*
X005795Y013469D02*
X005857Y013407D01*
X005980Y013407D01*
X006042Y013469D01*
X006042Y013716D02*
X005980Y013777D01*
X005857Y013777D01*
X005795Y013716D01*
X005795Y013469D01*
X005677Y012877D02*
X005677Y012507D01*
X005677Y012692D02*
X005801Y012692D01*
X005924Y012877D02*
X005677Y012877D01*
X006169Y012692D02*
X006169Y012507D01*
D14*
X008910Y014042D02*
X009337Y014042D01*
X010710Y013942D02*
X011137Y013942D01*
X010924Y014156D02*
X010924Y013729D01*
D15*
X014260Y014575D02*
X005574Y014575D01*
X005574Y014890D01*
X014260Y014890D01*
X014260Y014575D01*
X014260Y014890D02*
X014260Y017331D01*
X005574Y017331D01*
X005574Y014890D01*
X005747Y008631D02*
X002991Y008631D01*
X002991Y006190D01*
X005747Y006190D01*
X005747Y005875D01*
X002991Y005875D01*
X002991Y006190D01*
X005747Y006190D02*
X005747Y008631D01*
X007080Y008329D02*
X007080Y003211D01*
X013080Y003211D01*
X013080Y008329D01*
X007080Y008329D01*
X014008Y008232D02*
X014008Y005752D01*
X014952Y005752D01*
X014952Y008232D01*
X014008Y008232D01*
X015508Y008232D02*
X016452Y008232D01*
X016452Y005752D01*
X015508Y005752D01*
X015508Y008232D01*
X017008Y008252D02*
X017008Y010732D01*
X017952Y010732D01*
X017952Y008252D01*
X017008Y008252D01*
X016130Y015392D02*
X015630Y015392D01*
X015380Y015642D01*
X015380Y016142D01*
X015630Y016392D01*
X016130Y016392D01*
X016380Y016142D01*
X016380Y015642D01*
X016130Y015392D01*
D16*
X011700Y004392D02*
X011702Y004442D01*
X011708Y004492D01*
X011718Y004541D01*
X011732Y004589D01*
X011749Y004636D01*
X011770Y004681D01*
X011795Y004725D01*
X011823Y004766D01*
X011855Y004805D01*
X011889Y004842D01*
X011926Y004876D01*
X011966Y004906D01*
X012008Y004933D01*
X012052Y004957D01*
X012098Y004978D01*
X012145Y004994D01*
X012193Y005007D01*
X012243Y005016D01*
X012292Y005021D01*
X012343Y005022D01*
X012393Y005019D01*
X012442Y005012D01*
X012491Y005001D01*
X012539Y004986D01*
X012585Y004968D01*
X012630Y004946D01*
X012673Y004920D01*
X012714Y004891D01*
X012753Y004859D01*
X012789Y004824D01*
X012821Y004786D01*
X012851Y004746D01*
X012878Y004703D01*
X012901Y004659D01*
X012920Y004613D01*
X012936Y004565D01*
X012948Y004516D01*
X012956Y004467D01*
X012960Y004417D01*
X012960Y004367D01*
X012956Y004317D01*
X012948Y004268D01*
X012936Y004219D01*
X012920Y004171D01*
X012901Y004125D01*
X012878Y004081D01*
X012851Y004038D01*
X012821Y003998D01*
X012789Y003960D01*
X012753Y003925D01*
X012714Y003893D01*
X012673Y003864D01*
X012630Y003838D01*
X012585Y003816D01*
X012539Y003798D01*
X012491Y003783D01*
X012442Y003772D01*
X012393Y003765D01*
X012343Y003762D01*
X012292Y003763D01*
X012243Y003768D01*
X012193Y003777D01*
X012145Y003790D01*
X012098Y003806D01*
X012052Y003827D01*
X012008Y003851D01*
X011966Y003878D01*
X011926Y003908D01*
X011889Y003942D01*
X011855Y003979D01*
X011823Y004018D01*
X011795Y004059D01*
X011770Y004103D01*
X011749Y004148D01*
X011732Y004195D01*
X011718Y004243D01*
X011708Y004292D01*
X011702Y004342D01*
X011700Y004392D01*
X007200Y004392D02*
X007202Y004442D01*
X007208Y004492D01*
X007218Y004541D01*
X007232Y004589D01*
X007249Y004636D01*
X007270Y004681D01*
X007295Y004725D01*
X007323Y004766D01*
X007355Y004805D01*
X007389Y004842D01*
X007426Y004876D01*
X007466Y004906D01*
X007508Y004933D01*
X007552Y004957D01*
X007598Y004978D01*
X007645Y004994D01*
X007693Y005007D01*
X007743Y005016D01*
X007792Y005021D01*
X007843Y005022D01*
X007893Y005019D01*
X007942Y005012D01*
X007991Y005001D01*
X008039Y004986D01*
X008085Y004968D01*
X008130Y004946D01*
X008173Y004920D01*
X008214Y004891D01*
X008253Y004859D01*
X008289Y004824D01*
X008321Y004786D01*
X008351Y004746D01*
X008378Y004703D01*
X008401Y004659D01*
X008420Y004613D01*
X008436Y004565D01*
X008448Y004516D01*
X008456Y004467D01*
X008460Y004417D01*
X008460Y004367D01*
X008456Y004317D01*
X008448Y004268D01*
X008436Y004219D01*
X008420Y004171D01*
X008401Y004125D01*
X008378Y004081D01*
X008351Y004038D01*
X008321Y003998D01*
X008289Y003960D01*
X008253Y003925D01*
X008214Y003893D01*
X008173Y003864D01*
X008130Y003838D01*
X008085Y003816D01*
X008039Y003798D01*
X007991Y003783D01*
X007942Y003772D01*
X007893Y003765D01*
X007843Y003762D01*
X007792Y003763D01*
X007743Y003768D01*
X007693Y003777D01*
X007645Y003790D01*
X007598Y003806D01*
X007552Y003827D01*
X007508Y003851D01*
X007466Y003878D01*
X007426Y003908D01*
X007389Y003942D01*
X007355Y003979D01*
X007323Y004018D01*
X007295Y004059D01*
X007270Y004103D01*
X007249Y004148D01*
X007232Y004195D01*
X007218Y004243D01*
X007208Y004292D01*
X007202Y004342D01*
X007200Y004392D01*
D17*
X013335Y006767D02*
X013335Y006902D01*
X013380Y006947D01*
X013470Y006947D01*
X013515Y006902D01*
X013515Y006767D01*
X013605Y006767D02*
X013335Y006767D01*
X013515Y006857D02*
X013605Y006947D01*
X013605Y007062D02*
X013425Y007242D01*
X013380Y007242D01*
X013335Y007197D01*
X013335Y007107D01*
X013380Y007062D01*
X013605Y007062D02*
X013605Y007242D01*
X014335Y007251D02*
X014335Y007341D01*
X014380Y007386D01*
X014560Y007206D01*
X014605Y007251D01*
X014605Y007341D01*
X014560Y007386D01*
X014380Y007386D01*
X014335Y007251D02*
X014380Y007206D01*
X014560Y007206D01*
X014560Y007092D02*
X014605Y007047D01*
X014605Y006957D01*
X014560Y006912D01*
X014470Y006912D02*
X014425Y007002D01*
X014425Y007047D01*
X014470Y007092D01*
X014560Y007092D01*
X014470Y006912D02*
X014335Y006912D01*
X014335Y007092D01*
X014605Y006797D02*
X014605Y006617D01*
X014605Y006707D02*
X014335Y006707D01*
X014425Y006617D01*
X015835Y006707D02*
X016105Y006707D01*
X016105Y006617D02*
X016105Y006797D01*
X016060Y006912D02*
X016105Y006957D01*
X016105Y007047D01*
X016060Y007092D01*
X015970Y007092D01*
X015925Y007047D01*
X015925Y007002D01*
X015970Y006912D01*
X015835Y006912D01*
X015835Y007092D01*
X015835Y007206D02*
X016105Y007206D01*
X016015Y007206D02*
X015835Y007386D01*
X015970Y007251D02*
X016105Y007386D01*
X016735Y007197D02*
X016735Y007107D01*
X016780Y007062D01*
X016780Y006947D02*
X016870Y006947D01*
X016915Y006902D01*
X016915Y006767D01*
X017005Y006767D02*
X016735Y006767D01*
X016735Y006902D01*
X016780Y006947D01*
X016915Y006857D02*
X017005Y006947D01*
X016960Y007062D02*
X017005Y007107D01*
X017005Y007197D01*
X016960Y007242D01*
X016915Y007242D01*
X016870Y007197D01*
X016870Y007152D01*
X016870Y007197D02*
X016825Y007242D01*
X016780Y007242D01*
X016735Y007197D01*
X015925Y006617D02*
X015835Y006707D01*
X017470Y009117D02*
X017380Y009207D01*
X017335Y009297D01*
X017380Y009412D02*
X017425Y009412D01*
X017470Y009457D01*
X017470Y009547D01*
X017515Y009592D01*
X017560Y009592D01*
X017605Y009547D01*
X017605Y009457D01*
X017560Y009412D01*
X017515Y009412D01*
X017470Y009457D01*
X017470Y009547D02*
X017425Y009592D01*
X017380Y009592D01*
X017335Y009547D01*
X017335Y009457D01*
X017380Y009412D01*
X017515Y009297D02*
X017470Y009252D01*
X017470Y009117D01*
X017560Y009117D01*
X017605Y009162D01*
X017605Y009252D01*
X017560Y009297D01*
X017515Y009297D01*
X017560Y009706D02*
X017380Y009886D01*
X017560Y009886D01*
X017605Y009841D01*
X017605Y009751D01*
X017560Y009706D01*
X017380Y009706D01*
X017335Y009751D01*
X017335Y009841D01*
X017380Y009886D01*
X016705Y009852D02*
X016435Y009852D01*
X016525Y009762D01*
X016570Y009647D02*
X016615Y009602D01*
X016615Y009467D01*
X016705Y009467D02*
X016435Y009467D01*
X016435Y009602D01*
X016480Y009647D01*
X016570Y009647D01*
X016615Y009557D02*
X016705Y009647D01*
X016705Y009762D02*
X016705Y009942D01*
M02*
